<svg height="136.9" viewBox="0 0 194.6 136.9" width="194.6" xmlns="http://www.w3.org/2000/svg" xmlns:xlink="http://www.w3.org/1999/xlink"><linearGradient id="a"><stop offset="0" stop-color="#fff"/><stop offset="1" stop-color="#fff" stop-opacity="0"/></linearGradient><linearGradient id="b"><stop offset=".005305" stop-color="#865b14"/><stop offset=".14324" stop-color="#fdc515"/><stop offset=".31565" stop-color="#e08109"/><stop offset=".48806" stop-color="#edce05"/><stop offset=".66844" stop-color="#ff8801"/><stop offset=".80902" stop-color="#f9c100"/><stop offset="1" stop-color="#905d15"/></linearGradient><linearGradient id="c" gradientTransform="matrix(1.0027 0 0 1.0026 27.973 -.2465)" gradientUnits="userSpaceOnUse" x1="-1.2606" x2="133.57" y1="55.415" y2="85.53"><stop offset=".17507" stop-color="#f0f0f0" stop-opacity=".85789"/><stop offset=".42091" stop-color="#ececec"/><stop offset=".61404" stop-color="#f0f0f0"/><stop offset=".76067" stop-color="#dcdcdc" stop-opacity=".98947"/><stop offset="1" stop-color="#fff" stop-opacity=".54211"/></linearGradient><linearGradient id="d" gradientTransform="matrix(1.2366 0 0 1 -5.0001 43.881)" gradientUnits="userSpaceOnUse" x1="20.517" x2="145.29" xlink:href="#b" y1="60.041" y2="60.041"/><linearGradient id="e" gradientTransform="matrix(1.0527 0 0 1 10.359 64.663)" gradientUnits="userSpaceOnUse" x1="21.372" x2="145.64" xlink:href="#b" y1="60.083" y2="60.083"/><linearGradient id="f" gradientTransform="matrix(1.0359 0 0 1 -22.512 47.967)" gradientUnits="userSpaceOnUse" x1="41.496" x2="59.901" y1="64.118" y2="63.999"><stop offset=".10548" stop-color="#380000"/><stop offset=".33444" stop-color="#ffd228"/><stop offset=".44737" stop-color="#e59f01"/><stop offset=".44737" stop-color="#d7a402"/><stop offset=".51754" stop-color="#fec716"/><stop offset=".63743" stop-color="#cf8900"/><stop offset=".85037" stop-color="#ffdc51"/><stop offset=".98167" stop-color="#a46800"/><stop offset="1" stop-color="#d4ae00"/></linearGradient><linearGradient id="g" gradientTransform="matrix(-.99112 0 0 1 195.45 43.12)" gradientUnits="userSpaceOnUse" x1="18.524" x2="40.228" y1="65.003" y2="65.479"><stop offset=".12587" stop-color="#380000"/><stop offset=".33444" stop-color="#ffd228"/><stop offset=".44737" stop-color="#e59f01"/><stop offset=".44737" stop-color="#d7a402"/><stop offset=".51754" stop-color="#fec716"/><stop offset=".57829" stop-color="#cf8900"/><stop offset=".86842" stop-color="#ffdc51"/><stop offset=".97661" stop-color="#a46800"/><stop offset="1" stop-color="#d4ae00"/></linearGradient><linearGradient id="h" gradientTransform="matrix(1.0527 0 0 1 10.181 43.781)" gradientUnits="userSpaceOnUse" x1="21.54" x2="145.81" xlink:href="#a" y1="80.965" y2="80.965"/><linearGradient id="i" gradientTransform="matrix(1.2366 0 0 1 -5.0001 43.881)" gradientUnits="userSpaceOnUse" x1="20.517" x2="145.29" xlink:href="#a" y1="60.041" y2="60.041"/><linearGradient id="j" gradientTransform="matrix(1.2606 0 0 1 -7.2361 43.781)" gradientUnits="userSpaceOnUse" x1="19.529" x2="146.47" y1="70.494" y2="70.494"><stop offset="0" stop-color="#dadada"/><stop offset=".15119" stop-color="#fff"/><stop offset=".44297" stop-color="#d7d7d7"/><stop offset=".66313" stop-color="#f4f4f4"/><stop offset=".7931" stop-color="#ddd"/><stop offset="1" stop-color="#efefef"/></linearGradient><linearGradient id="k" gradientTransform="matrix(.71831 0 0 .96646 86.602 38.208)" gradientUnits="userSpaceOnUse" x1="19.548" x2="146.5" xlink:href="#b" y1="60.041" y2="60.041"/><linearGradient id="l" gradientTransform="matrix(.72661 0 0 -.96529 85.732 175.39)" gradientUnits="userSpaceOnUse" x1="19.548" x2="144.57" xlink:href="#b" y1="60.041" y2="60.041"/><linearGradient id="m" gradientTransform="matrix(.73478 0 0 1 115.99 60.408)" gradientUnits="userSpaceOnUse" x1="-20.045" x2="106.89" y1="46.28" y2="46.28"><stop offset=".22016" stop-color="#bababa"/><stop offset=".59151" stop-color="#8b8b8b"/><stop offset=".82228" stop-color="#f5f5f5"/></linearGradient><linearGradient id="n" gradientTransform="matrix(-.75006 0 0 1 80.193 61.267)" gradientUnits="userSpaceOnUse" x1="-20.045" x2="106.89" y1="46.28" y2="46.28"><stop offset=".22016" stop-color="#bababa"/><stop offset=".6008" stop-color="#8b8b8b"/><stop offset=".83289" stop-color="#f5f5f5"/></linearGradient><linearGradient id="o" gradientTransform="matrix(-.73838 0 0 1.09 110.61 31.716)" gradientUnits="userSpaceOnUse" x1="19.548" x2="146.5" xlink:href="#b" y1="60.041" y2="60.041"/><linearGradient id="p" gradientTransform="matrix(-.74241 0 0 -.96529 110.99 176.25)" gradientUnits="userSpaceOnUse" x1="19.548" x2="146.5" xlink:href="#b" y1="60.041" y2="60.041"/><linearGradient id="q" gradientUnits="userSpaceOnUse" x1="33.256" x2="156.15" y1="26.666" y2="117.61"><stop offset="0" stop-color="#362608"/><stop offset=".13867" stop-color="#d38800"/><stop offset=".2626" stop-color="#e7b35d"/><stop offset=".39257" stop-color="#986300"/><stop offset=".59947" stop-color="#c17700"/><stop offset=".70663" stop-color="#ffb641"/><stop offset=".80751" stop-color="#5f3d00"/><stop offset="1" stop-color="#f09900"/></linearGradient><circle cx="97.229" cy="68.43" fill="url(#q)" fill-rule="evenodd" r="68.351"/><path d="m97.499 5.3023c34.58 0 63.178 28.282 63.178 63.168 0 34.887-28.598 63.169-63.178 63.169-35.193 0-63.168-28.282-63.168-63.169 0-34.886 27.976-63.168 63.168-63.168z" fill="url(#c)" fill-rule="evenodd" stroke-linecap="round" stroke-width="5.0836"/><path d="m97.339 15.705c29.127 0 52.741 23.612 52.741 52.74s-23.613 52.741-52.741 52.741-52.741-23.612-52.741-52.741c0-29.127 23.612-52.74 52.741-52.74z" fill="none" height="119.5" stroke="#ac7419" stroke-width=".90932" width="119.5"/><path d="m97.419 8.861c32.954 0 59.67 26.715 59.67 59.669 0 32.955-26.716 59.67-59.67 59.67-32.955 0-59.67-26.714-59.67-59.67 0-32.954 26.715-59.669 59.67-59.669z" fill="none" height="119.5" stroke="#ac7419" stroke-width="1.0288" width="119.5"/><path d="m133.24 21.523-.63981 1.952 1.5882 1.2843-2.0482.0062-.73769 1.9183-.62552-1.9484-2.0448-.09895 1.661-1.2104-.52575-1.9795 1.6526 1.2005zm-71.458 93.802.63954-1.9521-1.5885-1.284 2.0482-.006.73741-1.9184.62581 1.9482 2.0448.0987-1.6609 1.2105.52601 1.9796-1.6527-1.2003zm-11.118-82.704 1.9511.64272 1.2866-1.5864.0032 2.0482 1.9172.74052-1.9492.62266-.10198 2.0447-1.2079-1.6628-1.9804.52281 1.2029-1.6508zm93.693 71.596-1.9511-.64245-1.2864 1.5866-.003-2.0482-1.9173-.74025 1.9491-.62292.10172-2.0446 1.2081 1.6627 1.9803-.52309-1.2027 1.6509zm-25.033-90.569-.0918 2.0522 1.875.81027-1.9712.5563-.19514 2.0459-1.126-1.7086-1.9961.45413 1.2746-1.6122-1.0384-1.7655 1.9144.71231zm-43.625 109.55.09148-2.0522-1.8751-.81003 1.9712-.55659.19482-2.046 1.1263 1.7085 1.9961-.45441-1.2744 1.6123 1.0386 1.7653-1.9144-.71205zm-32.933-76.675 2.0521.09481.81303-1.8737.55339 1.9721 2.0456.19813-1.7102 1.1235.45118 1.9968-1.6103-1.2771-1.7671 1.0357.71513-1.9133zm109.49 43.788-2.052-.09452-.81274 1.8739-.55369-1.972-2.0457-.19782 1.7101-1.1237-.45144-1.9968 1.6105 1.2768 1.7669-1.036-.71482 1.9134zm-63.298-80.225.94848 1.8222 2.0286-.23788-1.4275 1.4688.85592 1.8685-1.8304-.91477-1.5002 1.3929.29574-2.0338-1.783-1.0079 2.0136-.3424zm17.115 116.67-.9487-1.822-2.0287.23814 1.4272-1.4691-.85622-1.8684 1.8306.91451 1.5-1.3931-.29542 2.0339 1.7831 1.0077-2.0137.34265zm-66.91-49.867 1.8235-.94578-.23487-2.0291 1.4667 1.4296 1.8697-.85323-.91746 1.8291 1.3907 1.5023-2.0333-.29872-1.0106 1.7815-.33942-2.0142zm116.7-16.943-1.8235.94609.23521 2.029-1.467-1.4294-1.8697.85344.91723-1.8292-1.391-1.502 2.0334.29844 1.0104-1.7817.33972 2.0141zm-82.596-45.265 1.4125 1.4914 1.8853-.78596-.96905 1.8045 1.3363 1.5615-2.0113-.37676-1.0599 1.7514-.27433-2.0368-1.9913-.4794 1.8422-.88234zm48.506 107.48-1.4127-1.4913-1.8852.78626.96877-1.8046-1.3364-1.5613 2.0113.37645 1.0596-1.7516.27461 2.0368 1.9914.47913-1.842.88256zm-78.034-29.568 1.4936-1.4103-.78318-1.8864 1.803.97171 1.5635-1.3339-.37974 2.0108 1.7499 1.0625-2.0372.27132-.48232 1.9906-.87965-1.8434zm107.55-48.348-1.4934 1.4105.78349 1.8864-1.8032-.97145-1.5633 1.3342.37947-2.0108-1.75-1.0622 2.0372-.27161.48207-1.9907.87986 1.8434zm-90.994-21.548 1.7478 1.0794 1.6206-1.2432-.47387 1.9927 1.692 1.1666-2.0407.15165-.57525 1.9646-.78748-1.8984-2.0477.04732 1.5543-1.3252zm74.448 91.446-1.748-1.0791-1.6205 1.2434.4736-1.9927-1.6922-1.1663 2.0406-.15194.57499-1.9648.78779 1.8982 2.0476-.0476-1.5541 1.3255zm-83.007-8.567 1.0819-1.7462-1.2408-1.6225 1.992.47682 1.1691-1.6903.14863 2.0409 1.9639.57815-1.8995.78471.04431 2.0477-1.323-1.5562zm91.555-74.312-1.0817 1.7464 1.2411 1.6223-1.992-.47652-1.1688 1.6905-.14892-2.0409-1.9639-.57788 1.8994-.78503-.0446-2.0477 1.3232 1.556zm-104.27 29.794 2.0095-.42641.31356-2.0184 1.0334 1.7684 2.0294-.32484-1.3712 1.5189.94072 1.8182-1.8805-.82908-1.4482 1.4484.20883-2.0319zm117 14.723-2.0094.4267-.31327 2.0184-1.0337-1.7682-2.0293.32512 1.3709-1.5192-.94105-1.8181 1.8807.82882 1.448-1.4485-.20863 2.0319zm-65.95 51.129-.42344-2.0101-2.0179-.31663 1.77-1.0308-.32186-2.0298 1.517 1.3734 1.8196-.93813-.83187 1.8794 1.4462 1.4504-2.0316-.21182zm14.896-116.98.42375 2.01 2.018.31622-1.7698 1.031.32212 2.0298-1.5172-1.3732-1.8194.93834.8316-1.8795-1.4464-1.4502 2.0316.21153zm-44.664 12.762 1.7478 1.0794 1.6206-1.2432-.47387 1.9927 1.692 1.1666-2.0407.15165-.57525 1.9646-.78748-1.8984-2.0477.04732 1.5543-1.3253zm74.448 91.446-1.748-1.0791-1.6205 1.2434.4736-1.9927-1.6922-1.1663 2.0406-.15194.57499-1.9648.7878 1.8982 2.0476-.0476-1.5541 1.3255zm-83.007-8.567 1.0819-1.7462-1.2408-1.6225 1.992.47683 1.1691-1.6903.14863 2.0409 1.9639.57816-1.8995.7847.04431 2.0477-1.323-1.5562zm91.555-74.312-1.0817 1.7464 1.2411 1.6223-1.992-.47652-1.1688 1.6905-.14892-2.0409-1.9639-.57788 1.8994-.78503-.0446-2.0477 1.3232 1.556zm-104.27 29.794 2.0095-.42641.31356-2.0184 1.0334 1.7684 2.0294-.32484-1.3712 1.5189.94072 1.8182-1.8805-.82908-1.4482 1.4484.20883-2.0319zm117 14.723-2.0094.42669-.31327 2.0184-1.0337-1.7682-2.0293.32512 1.3709-1.5192-.94104-1.8181 1.8807.82882 1.448-1.4485-.20863 2.0319zm-65.95 51.129-.42344-2.0101-2.0179-.31663 1.77-1.0308-.32185-2.0298 1.5169 1.3734 1.8196-.93812-.83187 1.8794 1.4462 1.4504-2.0316-.21182zm14.896-116.98.42375 2.01 2.018.31622-1.7698 1.031.32212 2.0298-1.5172-1.3732-1.8194.93834.8316-1.8795-1.4464-1.4502 2.0316.21153zm21.918 7.3692-.38219 2.0183 1.7409 1.0683-2.0302.2708-.48361 1.9975-.87206-1.8512-2.0404.16612 1.4906-1.4149-.77716-1.895 1.7939.97688zm-58.737 102.25.38191-2.0184-1.7411-1.068 2.0302-.2711.48331-1.9976.87233 1.851 2.0404-.1664-1.4905 1.415.77742 1.895-1.794-.97666zm-21.713-80.574 2.0178.38519 1.0708-1.7394.26781 2.0306 1.9968.48655-1.8524.86933.16311 2.0407-1.4127-1.4928-1.8962.77435.97952-1.7924zm102.16 58.888-2.0178-.38491-1.0706 1.7395-.2681-2.0306-1.9969-.48626 1.8523-.86959-.16336-2.0406 1.4128 1.4926 1.8961-.77462-.97925 1.7925zm-36.527-86.575.17421 2.0468 1.964.56117-1.8828.80638.0709 2.054-1.3374-1.5488-1.9207.70828 1.0556-1.7634-1.2578-1.6165 1.9904.45894zm-29.102 114.27-.17449-2.0468-1.9641-.56091 1.8827-.80666-.07122-2.054 1.3376 1.5486 1.9206-.70855-1.0554 1.7635 1.258 1.6163-1.9904-.45868zm-42.566-71.776 2.0471-.17117.56407-1.9631.8036 1.884 2.0541-.06789-1.5507 1.3351.70545 1.9218-1.7618-1.0583-1.6184 1.2554.46187-1.9897zm114.23 29.271-2.047.17145-.56376 1.9632-.80389-1.8839-2.0541.0682 1.5505-1.3353-.7057-1.9217 1.762 1.058 1.6182-1.2556-.46156 1.9897zm-73.135-71.372 1.176 1.6843 1.9809-.49805-1.2257 1.641 1.0902 1.7422-1.9333-.67055-1.3076 1.5751.03043-2.055-1.8983-.76908 1.9525-.59975zm32.049 113.48-1.1762-1.6841-1.9809.49831 1.2254-1.6412-1.0905-1.7421 1.9334.67027 1.3074-1.5753-.0301 2.055 1.8984.76882-1.9525.6zm-72.793-40.802 1.686-1.1735-.49512-1.9817 1.6392 1.2281 1.7438-1.0877-.6734 1.9323 1.5732 1.31-2.0549-.03344-.77189 1.8972-.59686-1.9534zm113.53-31.882-1.6859 1.1738.49544 1.9816-1.6394-1.2278-1.7437 1.0879.67315-1.9324-1.5734-1.3097 2.0549.03316.77164-1.8973.59715 1.9533zm-87.753-34.212 1.5934 1.2964 1.7679-1.023-.72773 1.9146 1.5269 1.3757-2.0431-.11368-.82465 1.8737-.53525-1.9843-2.0366-.21804 1.7127-1.113zm61.989 100.31-1.5936-1.2962-1.7678 1.0233.72743-1.9147-1.527-1.3755 2.0431.11337.82439-1.8738.53552 1.9842 2.0366.21777-1.7125 1.1132zm-81.201-19.236 1.2988-1.5915-1.0204-1.7694 1.9135.73055 1.378-1.5248-.1167 2.043 1.8725.82741-1.9851.53232-.22104 2.0362-1.1105-1.7143zm100.4-61.841-1.2986 1.5917 1.0207 1.7693-1.9136-.73028-1.3778 1.525.11643-2.043-1.8726-.82715 1.985-.5326.22077-2.0363 1.1107 1.7142zm-93.016-9.608 1.8726.84444 1.4464-1.4422-.21238 2.0372 1.8286.93812-2.004.4141-.31654 2.0225-1.0262-1.7807-2.0244.31155 1.37-1.515zm85.641 81.058-1.8728-.84417-1.4462 1.4424.21211-2.0372-1.8287-.93785 2.0039-.41438.31626-2.0226 1.0265 1.7805 2.0243-.31184-1.3698 1.5152zm-83.418 2.2318.8472-1.8714-1.4401-1.4485 2.0369.2154.94082-1.8272.41113 2.0046 2.0221.31952-1.7822 1.0236.30856 2.0248-1.513-1.3722zm81.184-85.521-.84695 1.8715 1.4403 1.4483-2.0369-.2151-.94057 1.8274-.41141-2.0045-2.0221-.31924 1.782-1.0239-.30883-2.0248 1.5132 1.372zm-99.548 43.019 1.9375-.68252.05009-2.042 1.2533 1.62 1.9704-.58437-1.1634 1.6834 1.1678 1.6814-1.9719-.57911-1.2489 1.6234-.0555-2.0418zm117.92-.52032-1.9374.68279-.0498 2.042-1.2535-1.6198-1.9703.58465 1.1631-1.6836-1.1681-1.6812 1.972.57883 1.2487-1.6235.0557 2.0418zm-58.79 59.223-.67965-1.9385-2.0419-.0532 1.6219-1.2509-.58147-1.9712 1.6817 1.1658 1.6831-1.1654-.58202 1.9711 1.6215 1.2513-2.0419.0525zm-.3462-117.92.67995 1.9384 2.0419.05279-1.6217 1.2511.58174 1.9712-1.6819-1.1656-1.6829 1.1656.58174-1.9712-1.6217-1.2511 2.0419-.05279zm-42.64 18.427 1.8726.84444 1.4464-1.4422-.21238 2.0372 1.8286.93812-2.004.4141-.31654 2.0225-1.0262-1.7807-2.0244.31155 1.37-1.515zm85.641 81.058-1.8728-.84417-1.4462 1.4424.21211-2.0372-1.8287-.93785 2.0039-.41438.31626-2.0226 1.0265 1.7805 2.0243-.31184-1.3698 1.5152zm-83.418 2.2318.8472-1.8714-1.4401-1.4485 2.0369.2154.94082-1.8272.41113 2.0046 2.0221.31952-1.7822 1.0236.30856 2.0248-1.513-1.3722zm81.184-85.521-.84695 1.8715 1.4403 1.4483-2.0369-.2151-.94057 1.8274-.41141-2.0045-2.0221-.31924 1.782-1.0239-.30883-2.0248 1.5132 1.372zm-99.548 43.019 1.9375-.68252.05009-2.042 1.2533 1.62 1.9704-.58437-1.1634 1.6834 1.1678 1.6814-1.9719-.57911-1.2489 1.6234-.0555-2.0418zm117.92-.52032-1.9374.68279-.0498 2.042-1.2535-1.6198-1.9703.58465 1.1631-1.6836-1.1681-1.6812 1.972.57883 1.2487-1.6235.0557 2.0418zm-58.79 59.223-.67965-1.9385-2.0419-.0532 1.6219-1.2509-.58147-1.9712 1.6817 1.1658 1.6831-1.1654-.58202 1.9711 1.6215 1.2513-2.0419.0525zm-.3462-117.92.67995 1.9384 2.0419.05279-1.6217 1.2511.58174 1.9712-1.6819-1.1656-1.6829 1.1656.58174-1.9712-1.6217-1.2511 2.0419-.05279z" fill="#a8741e"/><path d="m156.2 92.874v27.627h38.327v-.14844l-13.803-13.701 13.803-13.631v-.14648z" fill="url(#m)" stroke-width=".80195"/><path d="m156.09 95.722v1.0273h34.373l1.2324-1.0273z" fill="url(#k)" stroke-width=".83315"/><path d="m156.09 116.92v1.0137l36.045-.008-1.3422-1.0059z" fill="url(#l)" stroke-width=".83748"/><path d="m39.141 93.733v27.627h-39.123v-.14844l13.571-13.372-13.571-13.96v-.14648z" fill="url(#n)" stroke-width=".93468"/><path d="m39.1 117.78v1.0137l-36.632-.008 1.1745-1.0059z" fill="url(#p)" stroke-width=".84655"/><path d="m39.172 96.581v1.1586h-35.333l-1.2668-1.1586z" fill="url(#o)" stroke-width=".89712"/><g fill="#895604" image-rendering="optimizeSpeed" stroke-width="1.1731" transform="scale(.9232 1.0832)"><path d="m85.399 68.563-6.9633 11.58v7.3057h-4.8705v-7.0774l-7.0774-11.808h5.53l4.0841 7.3057 3.9446-7.3057z"/><path d="m101.58 87.449h-13.66v-18.886h13.66v3.6529h-8.8151v3.2597h8.1809v3.6529h-8.1809v4.6676h8.8151z"/><path d="m123.12 87.449h-5.0354l-1.3064-3.8178h-7.0014l-1.3064 3.8178h-4.9086l6.976-18.886h5.6062zm-7.5214-7.2804-2.3211-6.773-2.3211 6.773z"/><path d="m136.43 74.346q0-.71028-.29172-1.2176t-1.002-.79907q-.49466-.20294-1.1542-.24099-.65955-.05074-1.5347-.05074h-1.763v5.0861h1.4967q1.1669 0 1.9533-.11415.78639-.11415 1.3191-.52003.50734-.39319.73565-.86248.24098-.48198.24098-1.281zm7.5975 13.102h-5.9486l-5.1495-6.9252h-2.245v6.9252h-4.8451v-18.886h8.1682q1.6742 0 2.8792.19025 1.205.19025 2.2577.82443 1.0654.63418 1.6869 1.6489.63418 1.002.63418 2.524 0 2.0928-.97664 3.4119-.96395 1.3191-2.765 2.1943z"/></g><path d="m100.36 51.36q3.4672-2.5122 6.1247-4.6714t4.6091-4.0278q1.9724-1.8686 3.3011-3.4672 1.3288-1.5987 2.1385-2.9689.8097-1.391 1.1419-2.5745.35295-1.2042.35295-2.2838 0-1.8063-.66437-3.052-.64362-1.2457-1.6609-2.0139-.99656-.78895-2.2423-1.1419-1.2249-.35295-2.3876-.35295-1.4948 0-2.5537.35295-1.0381.33219-1.7025.91352-.64361.56057-.95504 1.3288-.29066.74742-.29066 1.5779 0 1.2042.49828 2.4084.49828 1.1834 1.4948 1.9931l-.083.2699q-1.1627.60209-2.4084.60209-.76819 0-1.4741-.22838-.7059-.24914-1.2457-.7059-.5398-.47752-.87199-1.1627-.31142-.68514-.31142-1.5571 0-1.2457.60209-2.3461.60209-1.1211 1.5986-2.0346 1.0173-.93428 2.3461-1.6609 1.3288-.72666 2.7613-1.2249 1.4533-.49828 2.9274-.76818 1.4741-.2699 2.7821-.2699 1.8893 0 3.5295.49828 1.6609.49828 2.8651 1.4533 1.2249.93428 1.9101 2.3046.7059 1.3703.7059 3.1143 0 1.2665-.33219 2.5952t-1.1419 2.8028q-.78895 1.4533-2.1385 3.0935-1.3288 1.6402-3.3634 3.5087-2.0346 1.8478-4.8167 3.9655t-6.4776 4.5676l.0415.10381q1.9516-.51904 3.9862-.93428 2.0346-.41524 3.9447-.7059 1.9101-.31143 3.6333-.45676 1.7232-.16609 3.0935-.16609 1.1419 0 2.0346.16609.91352.14533 1.5571.47752.64361.33219.9758.87199.35295.51904.35295 1.2457 0 .95504-.60209 2.3253-2.9897-.29066-5.8133-.41524-2.8028-.12457-5.751-.12457-2.7405 0-5.6264.14533t-6.187.41523z" fill="#9d6406" stroke="#9a6601" stroke-width="2.6354" transform="scale(.86372 1.1578)"/><path d="m18.073 100.62c1.7444-.84201 21.166-6.9015 21.166-6.9015l-.06627 31.449-7.4774.0972z" fill="url(#f)" stroke-width="1.0178"/><path d="m177.44 100.6c-1.6691-.84201-21.289-7.6304-21.289-7.6304l-.76251 32.376 8.3672-.08z" fill="url(#g)" stroke-width="1.1399"/><path d="m17.728 100.46 15.419 27.525s111.37.10083 129.18.0996l15.073-26.908v-.7168z" fill="url(#j)" stroke-width="1.0506"/><path d="m31.318 124.82c.47685-.1631.84096-.0975 1.0143-.0976 46.032-.0283 91.589-.0151 131.04-.0146.18462 0 .39971-.0316.73719.0947" fill="url(#h)" stroke="url(#e)" stroke-width="1.0875"/><path d="m19.561 104.06.38601-.13396h155.3l.47379.15788" fill="url(#i)" stroke="url(#d)" stroke-width="1.1787"/><g image-rendering="optimizeSpeed" stroke-width=".676" transform="scale(1.0129 .98728)"><path d="m57.607 108.31-3.9741 15.291h-2.29l-3.2142-12.693-3.1423 12.693h-2.2387l-4.046-15.291h2.0846l3.2142 12.713 3.1629-12.713h2.0641l3.1937 12.836 3.1937-12.836z"/><path d="m72.148 123.6h-2.1668l-1.4993-4.2617h-6.6133l-1.4993 4.2617h-2.0641l5.5658-15.291h2.711zm-4.2925-6.0074-2.6802-7.5067-2.6905 7.5067z"/><path d="m87.12 123.6h-2.6391l-5.114-6.0793h-2.8651v6.0793h-2.0333v-15.291h4.2822q1.3863 0 2.3105.18484.92421.17458 1.6636.63669.83179.52372 1.2939 1.3247.47238.79072.47238 2.0127 0 1.6533-.83179 2.7726-.83179 1.109-2.29 1.6738zm-4.7546-10.988q0-.65722-.23619-1.1604-.22592-.51345-.75991-.8626-.44157-.2978-1.0474-.41076-.60587-.12323-1.4274-.12323h-2.3927v5.7712h2.0538q.96529 0 1.6841-.1643.71883-.17458 1.222-.63668.46211-.4313.67776-.98583.22592-.5648.22592-1.4274z"/><path d="m101.74 123.6h-2.6391l-5.114-6.0793h-2.8651v6.0793h-2.0333v-15.291h4.2822q1.3863 0 2.3105.18484.92421.17458 1.6636.63669.83179.52372 1.2939 1.3247.47238.79072.47238 2.0127 0 1.6533-.83179 2.7726-.83179 1.109-2.29 1.6738zm-4.7546-10.988q0-.65722-.23619-1.1604-.22592-.51345-.75991-.8626-.44157-.2978-1.0474-.41076-.60587-.12323-1.4274-.12323h-2.3927v5.7712h2.0538q.96529 0 1.6841-.1643.71883-.17458 1.222-.63668.46211-.4313.67776-.98583.22592-.5648.22592-1.4274z"/><path d="m115.77 123.6h-2.1668l-1.4993-4.2617h-6.6133l-1.4993 4.2617h-2.0641l5.5658-15.291h2.711zm-4.2925-6.0074-2.6802-7.5067-2.6905 7.5067z"/><path d="m129.76 123.6h-2.5159l-7.2499-13.678v13.678h-1.8998v-15.291h3.1526l6.6133 12.487v-12.487h1.8998z"/><path d="m144.73 110.12h-5.4631v13.483h-2.0333v-13.483h-5.4631v-1.8074h12.96z"/><path d="m157.61 108.31-5.381 8.5849v6.7057h-2.0333v-6.49l-5.4015-8.8006h2.2489l4.1795 6.8392 4.2206-6.8392z"/></g></svg>