<svg height="136.9" viewBox="0 0 194.6 136.9" width="194.6" xmlns="http://www.w3.org/2000/svg" xmlns:xlink="http://www.w3.org/1999/xlink"><linearGradient id="a" gradientTransform="matrix(1.0027 0 0 1.0026 40.034 3.8855)" gradientUnits="userSpaceOnUse" x1="-1.2606" x2="133.57" y1="55.415" y2="85.53"><stop offset=".17507" stop-color="#f0f0f0" stop-opacity=".85789"/><stop offset=".42091" stop-color="#ececec"/><stop offset=".61404" stop-color="#f0f0f0"/><stop offset=".76067" stop-color="#dcdcdc" stop-opacity=".98947"/><stop offset="1" stop-color="#fff" stop-opacity=".54211"/></linearGradient><linearGradient id="b" gradientUnits="userSpaceOnUse" x1="45.317" x2="168.21" y1="30.798" y2="121.74"><stop offset="0" stop-color="#362608"/><stop offset=".13867" stop-color="#d38800"/><stop offset=".2626" stop-color="#e7b35d"/><stop offset=".39257" stop-color="#986300"/><stop offset=".59947" stop-color="#c17700"/><stop offset=".70663" stop-color="#ffb641"/><stop offset=".80751" stop-color="#5f3d00"/><stop offset="1" stop-color="#f09900"/></linearGradient><g transform="translate(-11.692 -4.0852)"><circle cx="109.29" cy="72.562" fill="url(#b)" r="68.351"/><path d="m109.56 9.4343c34.58 0 63.178 28.282 63.178 63.168 0 34.887-28.598 63.169-63.178 63.169-35.193 0-63.168-28.282-63.168-63.169 0-34.886 27.976-63.168 63.168-63.168z" fill="url(#a)" stroke-linecap="round" stroke-width="5.0836"/><path d="m109.48 12.993c32.954 0 59.67 26.715 59.67 59.669 0 32.955-26.716 59.67-59.67 59.67-32.955 0-59.67-26.714-59.67-59.67 0-32.954 26.715-59.669 59.67-59.669z" fill="none" height="119.5" stroke="#ac7419" stroke-width="2.329" width="119.5"/></g><path d="m23.337 93.713h90.067v2.1008h-90.067z" fill="#a8741e" transform="translate(29.088)"/><g fill="#975f04" stroke-width=".83535" transform="matrix(.92375 0 0 1.0825 29.088 0)"><path d="m26.309 63.397h8.908v4.1114h-3.5657v3.8957h3.3373v3.9084h-3.3373v4.5174h3.921v4.1114h-9.2633z"/><path d="m48.427 69.615h-4.9616v-1.5227q0-1.0659-.19034-1.3578t-.63447-.29186q-.4822 0-.73599.39337-.2411.39337-.2411 1.1928 0 1.0278.27917 1.5481.26648.52027 1.51 1.2563 3.5657 2.1191 4.4921 3.4769.92633 1.3578.92633 4.3779 0 2.1953-.52027 3.2358-.50758 1.0405-1.9796 1.7511-1.472.69792-3.4262.69792-2.1445 0-3.6673-.81212-1.51-.81212-1.9796-2.0684-.46951-1.2563-.46951-3.5657v-1.3451h4.9616v2.4998q0 1.1547.20303 1.4847.21572.32993.74868.32993t.78675-.41875q.26648-.41875.26648-1.2436 0-1.8146-.49489-2.3729-.50758-.55834-2.4998-1.8654-1.9922-1.3197-2.6394-1.9161-.64716-.5964-1.0786-1.6496-.41875-1.0532-.41875-2.6902 0-2.3602.5964-3.4515.60909-1.0913 1.9542-1.7004 1.3451-.62178 3.2485-.62178 2.0811 0 3.5404.67254 1.472.67254 1.9415 1.7004.4822 1.0152.4822 3.4642z"/><path d="m61.307 63.397v4.1114h-3.1724v16.433h-5.3423v-16.433h-3.1597v-4.1114z"/><path d="m67.867 63.397v20.544h-5.3423v-20.544z"/><path d="m86.495 63.397v20.544h-4.6697v-13.87l-1.8654 13.87h-3.3119l-1.9669-13.552v13.552h-4.6697v-20.544h6.9158q.30455 1.8527.64716 4.3652l.73599 5.2281 1.2182-9.5932z"/><path d="m97.865 63.397 3.0582 20.544h-5.4692l-.26648-3.6926h-1.9161l-.31724 3.6926h-5.5326l2.7155-20.544zm-2.8297 13.21q-.40606-3.4896-.81212-8.6161-.81212 5.8879-1.0152 8.6161z"/><path d="m111.16 63.397v4.1114h-3.1724v16.433h-5.3423v-16.433h-3.1597v-4.1114z"/><path d="m112.38 63.397h8.908v4.1114h-3.5657v3.8957h3.3373v3.9084h-3.3373v4.5174h3.921v4.1114h-9.2633z"/></g><g fill="#b17107" stroke-width="1.4597" transform="matrix(.91889 0 0 1.0883 29.088 0)"><path d="m56.174 44.259h-6.8073v4.7355h6.2557v3.5247h-6.2557v7.4934h-4.3454v-19.292h11.153z"/><path d="m75.533 60.012h-4.9911l-3-4.9642q-.33633-.56503-.64575-1.009-.30942-.44395-.6323-.75338-.30942-.32288-.6592-.48431-.33633-.17489-.73992-.17489h-1.1704v7.3858h-4.3454v-19.292h6.888q7.0225 0 7.0225 5.2467 0 1.009-.30942 1.87-.30942.84755-.87445 1.5337-.56503.68611-1.3722 1.1839-.79374.49777-1.7758.78028v.05381q.4305.13453.83409.44395.40359.29597.78028.69956.37669.40359.71302.87445.34978.45741.6323.90136zm-11.839-16.036v5.3678h1.8834q1.3991 0 2.2467-.80719.861-.82064.861-2.0314 0-2.5292-3.027-2.5292z"/><path d="m88.906 60.012h-11.57v-19.292h11.126v3.5382h-6.7804v4.2915h6.3095v3.5247h-6.3095v4.4126h7.2243z"/><path d="m103.57 60.012h-11.57v-19.292h11.126v3.5382h-6.7804v4.2915h6.3095v3.5247h-6.3095v4.4126h7.2243z"/></g></svg>