<svg height="136.9" viewBox="0 0 194.6 136.9" width="194.6" xmlns="http://www.w3.org/2000/svg" xmlns:xlink="http://www.w3.org/1999/xlink"><linearGradient id="a" gradientTransform="matrix(1.0027 0 0 1.0026 40.034 3.8855)" gradientUnits="userSpaceOnUse" x1="-1.2606" x2="133.57" y1="55.415" y2="85.53"><stop offset=".17507" stop-color="#f0f0f0" stop-opacity=".85789"/><stop offset=".42091" stop-color="#ececec"/><stop offset=".61404" stop-color="#f0f0f0"/><stop offset=".76067" stop-color="#dcdcdc" stop-opacity=".98947"/><stop offset="1" stop-color="#fff" stop-opacity=".54211"/></linearGradient><linearGradient id="b" gradientUnits="userSpaceOnUse" x1="45.317" x2="168.21" y1="30.798" y2="121.74"><stop offset="0" stop-color="#362608"/><stop offset=".13867" stop-color="#d38800"/><stop offset=".2626" stop-color="#e7b35d"/><stop offset=".39257" stop-color="#986300"/><stop offset=".59947" stop-color="#c17700"/><stop offset=".70663" stop-color="#ffb641"/><stop offset=".80751" stop-color="#5f3d00"/><stop offset="1" stop-color="#f09900"/></linearGradient><g fill-rule="evenodd" transform="translate(-11.692 -4.0852)"><circle cx="109.29" cy="72.562" fill="url(#b)" r="68.351"/><path d="m109.56 9.4343c34.58 0 63.178 28.282 63.178 63.168 0 34.887-28.598 63.169-63.178 63.169-35.193 0-63.168-28.282-63.168-63.169 0-34.886 27.976-63.168 63.168-63.168z" fill="url(#a)" stroke-linecap="round" stroke-width="5.0836"/><path d="m109.48 12.993c32.954 0 59.67 26.715 59.67 59.669 0 32.955-26.716 59.67-59.67 59.67-32.955 0-59.67-26.714-59.67-59.67 0-32.954 26.715-59.669 59.67-59.669z" fill="none" height="119.5" stroke="#ac7419" stroke-width="2.329" width="119.5"/></g><g stroke-linejoin="bevel" transform="translate(29.088)"><text fill="#975f04" font-family="Impact" font-size="25.988" stroke-width=".83535" transform="scale(.92375 1.0825)" x="25.243118" y="83.941124"><tspan fill="#975f04" font-family="Impact" font-size="25.988" stroke-width=".83535" x="25.243118" y="83.941124">ESTIMATE</tspan></text><text fill="#b17107" font-family="Leelawadee" font-size="27.552" font-weight="bold" stroke-width="1.4597" transform="scale(.91889 1.0883)" x="42.815254" y="60.012291"><tspan fill="#b17107" font-family="Leelawadee" font-size="27.552" font-weight="bold" stroke-width="1.4597" x="42.815254" y="60.012291">FREE</tspan></text><path d="m23.337 93.713h90.067v2.1008h-90.067z" fill="#a8741e"/></g></svg>